<mxfile host="65bd71144e">
    <diagram id="C5RBs43oDa-KdzZeNtuy" name="Page-1">
        <mxGraphModel dx="451" dy="610" grid="1" gridSize="10" guides="1" tooltips="1" connect="1" arrows="1" fold="1" page="1" pageScale="1" pageWidth="827" pageHeight="1169" math="0" shadow="0">
            <root>
                <mxCell id="WIyWlLk6GJQsqaUBKTNV-0"/>
                <mxCell id="WIyWlLk6GJQsqaUBKTNV-1" parent="WIyWlLk6GJQsqaUBKTNV-0"/>
                <mxCell id="WIyWlLk6GJQsqaUBKTNV-2" value="" style="rounded=0;html=1;jettySize=auto;orthogonalLoop=1;fontSize=15;endArrow=classic;endFill=1;endSize=8;strokeWidth=1;shadow=0;labelBackgroundColor=none;edgeStyle=orthogonalEdgeStyle;" parent="WIyWlLk6GJQsqaUBKTNV-1" source="WIyWlLk6GJQsqaUBKTNV-3" target="WIyWlLk6GJQsqaUBKTNV-6" edge="1">
                    <mxGeometry relative="1" as="geometry"/>
                </mxCell>
                <mxCell id="WIyWlLk6GJQsqaUBKTNV-3" value="Flywheel (Ground truth) participants&lt;br style=&quot;font-size: 15px;&quot;&gt;&lt;b style=&quot;font-size: 15px;&quot;&gt;n&amp;nbsp;= 56&lt;/b&gt;" style="rounded=1;whiteSpace=wrap;html=1;fontSize=15;glass=0;strokeWidth=1;shadow=0;" parent="WIyWlLk6GJQsqaUBKTNV-1" vertex="1">
                    <mxGeometry x="332" y="20" width="164" height="80" as="geometry"/>
                </mxCell>
                <mxCell id="XRYE-j-GYC6dXX16yt95-13" value="" style="edgeStyle=orthogonalEdgeStyle;rounded=0;orthogonalLoop=1;jettySize=auto;html=1;fontSize=15;exitX=0.5;exitY=1;exitDx=0;exitDy=0;" parent="WIyWlLk6GJQsqaUBKTNV-1" source="WIyWlLk6GJQsqaUBKTNV-6" target="XRYE-j-GYC6dXX16yt95-12" edge="1">
                    <mxGeometry relative="1" as="geometry">
                        <mxPoint x="414" y="200" as="sourcePoint"/>
                    </mxGeometry>
                </mxCell>
                <mxCell id="WIyWlLk6GJQsqaUBKTNV-6" value="Downloaded to CUBIC&lt;br style=&quot;font-size: 15px;&quot;&gt;&lt;b style=&quot;font-size: 15px;&quot;&gt;n&amp;nbsp;= 56&lt;/b&gt;" style="whiteSpace=wrap;html=1;shadow=0;fontFamily=Helvetica;fontSize=15;align=center;strokeWidth=1;spacing=6;spacingTop=-4;rounded=1;" parent="WIyWlLk6GJQsqaUBKTNV-1" vertex="1">
                    <mxGeometry x="329" y="120" width="170" height="70" as="geometry"/>
                </mxCell>
                <mxCell id="XRYE-j-GYC6dXX16yt95-18" value="" style="edgeStyle=orthogonalEdgeStyle;rounded=0;orthogonalLoop=1;jettySize=auto;html=1;fontSize=15;" parent="WIyWlLk6GJQsqaUBKTNV-1" source="XRYE-j-GYC6dXX16yt95-12" target="XRYE-j-GYC6dXX16yt95-17" edge="1">
                    <mxGeometry relative="1" as="geometry"/>
                </mxCell>
                <mxCell id="wHM7SWZ9dMUQdtztSqZD-10" value="" style="edgeStyle=orthogonalEdgeStyle;rounded=0;orthogonalLoop=1;jettySize=auto;html=1;endArrow=classic;endFill=1;entryX=0.5;entryY=0;entryDx=0;entryDy=0;fontSize=15;" parent="WIyWlLk6GJQsqaUBKTNV-1" source="XRYE-j-GYC6dXX16yt95-12" target="wHM7SWZ9dMUQdtztSqZD-11" edge="1">
                    <mxGeometry relative="1" as="geometry">
                        <mxPoint x="524" y="420" as="targetPoint"/>
                    </mxGeometry>
                </mxCell>
                <mxCell id="wHM7SWZ9dMUQdtztSqZD-15" style="edgeStyle=orthogonalEdgeStyle;rounded=0;orthogonalLoop=1;jettySize=auto;html=1;exitX=1;exitY=0.5;exitDx=0;exitDy=0;entryX=0.5;entryY=0;entryDx=0;entryDy=0;endArrow=classic;endFill=1;fontSize=15;" parent="WIyWlLk6GJQsqaUBKTNV-1" source="XRYE-j-GYC6dXX16yt95-12" target="wHM7SWZ9dMUQdtztSqZD-14" edge="1">
                    <mxGeometry relative="1" as="geometry"/>
                </mxCell>
                <mxCell id="XRYE-j-GYC6dXX16yt95-12" value="Participants with BOLD&lt;br style=&quot;font-size: 15px;&quot;&gt;&lt;b style=&quot;font-size: 15px;&quot;&gt;n&amp;nbsp;= 56&lt;/b&gt;" style="rounded=1;whiteSpace=wrap;html=1;shadow=0;strokeWidth=1;spacing=6;spacingTop=-4;fontSize=15;" parent="WIyWlLk6GJQsqaUBKTNV-1" vertex="1">
                    <mxGeometry x="329" y="220" width="170" height="40" as="geometry"/>
                </mxCell>
                <mxCell id="wHM7SWZ9dMUQdtztSqZD-51" style="edgeStyle=orthogonalEdgeStyle;rounded=0;orthogonalLoop=1;jettySize=auto;html=1;exitX=0.5;exitY=1;exitDx=0;exitDy=0;entryX=0.5;entryY=0;entryDx=0;entryDy=0;fontSize=15;startArrow=none;startFill=0;endArrow=classicThin;endFill=1;" parent="WIyWlLk6GJQsqaUBKTNV-1" source="XRYE-j-GYC6dXX16yt95-17" target="wHM7SWZ9dMUQdtztSqZD-35" edge="1">
                    <mxGeometry relative="1" as="geometry"/>
                </mxCell>
                <mxCell id="XRYE-j-GYC6dXX16yt95-17" value="BOLD Task &lt;i style=&quot;font-size: 15px;&quot;&gt;Face&lt;/i&gt;&lt;br style=&quot;font-size: 15px;&quot;&gt;&lt;b style=&quot;font-size: 15px;&quot;&gt;n&amp;nbsp;= 56&lt;/b&gt;" style="whiteSpace=wrap;html=1;shadow=0;strokeWidth=1;fontSize=15;rounded=1;glass=0;fillColor=#e1d5e7;strokeColor=#9673a6;" parent="WIyWlLk6GJQsqaUBKTNV-1" vertex="1">
                    <mxGeometry x="140" y="280" width="170" height="40" as="geometry"/>
                </mxCell>
                <mxCell id="XRYE-j-GYC6dXX16yt95-24" value="Fieldmap set had incompatible shape with BOLD&lt;br style=&quot;font-size: 15px&quot;&gt;&lt;b style=&quot;font-size: 15px&quot;&gt;n&amp;nbsp;= 4&lt;/b&gt;" style="rounded=1;whiteSpace=wrap;html=1;fontSize=15;" parent="WIyWlLk6GJQsqaUBKTNV-1" vertex="1">
                    <mxGeometry x="690" y="330" width="120" height="90" as="geometry"/>
                </mxCell>
                <mxCell id="wHM7SWZ9dMUQdtztSqZD-50" style="edgeStyle=orthogonalEdgeStyle;rounded=0;orthogonalLoop=1;jettySize=auto;html=1;exitX=0.5;exitY=1;exitDx=0;exitDy=0;entryX=0.5;entryY=0;entryDx=0;entryDy=0;fontSize=15;startArrow=none;startFill=0;endArrow=classicThin;endFill=1;" parent="WIyWlLk6GJQsqaUBKTNV-1" source="wHM7SWZ9dMUQdtztSqZD-11" target="wHM7SWZ9dMUQdtztSqZD-35" edge="1">
                    <mxGeometry relative="1" as="geometry"/>
                </mxCell>
                <mxCell id="wHM7SWZ9dMUQdtztSqZD-11" value="BOLD Task &lt;i style=&quot;font-size: 15px;&quot;&gt;Rest&lt;/i&gt;&lt;br style=&quot;font-size: 15px;&quot;&gt;&lt;b style=&quot;font-size: 15px;&quot;&gt;n = 56&lt;/b&gt;" style="whiteSpace=wrap;html=1;shadow=0;strokeWidth=1;fontSize=15;rounded=1;glass=0;fillColor=#d5e8d4;strokeColor=#82b366;" parent="WIyWlLk6GJQsqaUBKTNV-1" vertex="1">
                    <mxGeometry x="329" y="280" width="170" height="40" as="geometry"/>
                </mxCell>
                <mxCell id="wHM7SWZ9dMUQdtztSqZD-48" style="edgeStyle=orthogonalEdgeStyle;rounded=0;orthogonalLoop=1;jettySize=auto;html=1;exitX=0.5;exitY=1;exitDx=0;exitDy=0;entryX=0.5;entryY=0;entryDx=0;entryDy=0;fontSize=15;startArrow=none;startFill=0;endArrow=classicThin;endFill=1;" parent="WIyWlLk6GJQsqaUBKTNV-1" source="wHM7SWZ9dMUQdtztSqZD-14" target="wHM7SWZ9dMUQdtztSqZD-44" edge="1">
                    <mxGeometry relative="1" as="geometry"/>
                </mxCell>
                <mxCell id="wHM7SWZ9dMUQdtztSqZD-14" value="BOLD Task &lt;i style=&quot;font-size: 15px;&quot;&gt;Card&lt;/i&gt;&lt;br style=&quot;font-size: 15px;&quot;&gt;&lt;b style=&quot;font-size: 15px;&quot;&gt;n = 56&lt;/b&gt;" style="whiteSpace=wrap;html=1;shadow=0;strokeWidth=1;fontSize=15;rounded=1;glass=0;fillColor=#dae8fc;strokeColor=#6c8ebf;" parent="WIyWlLk6GJQsqaUBKTNV-1" vertex="1">
                    <mxGeometry x="520" y="280" width="170" height="40" as="geometry"/>
                </mxCell>
                <mxCell id="wHM7SWZ9dMUQdtztSqZD-37" style="edgeStyle=orthogonalEdgeStyle;rounded=0;orthogonalLoop=1;jettySize=auto;html=1;exitX=1;exitY=0.5;exitDx=0;exitDy=0;startArrow=none;startFill=0;endArrow=classicThin;endFill=1;entryX=0;entryY=0.5;entryDx=0;entryDy=0;fontSize=15;" parent="WIyWlLk6GJQsqaUBKTNV-1" source="wHM7SWZ9dMUQdtztSqZD-35" target="wHM7SWZ9dMUQdtztSqZD-38" edge="1">
                    <mxGeometry relative="1" as="geometry">
                        <mxPoint x="690" y="630" as="targetPoint"/>
                    </mxGeometry>
                </mxCell>
                <mxCell id="wHM7SWZ9dMUQdtztSqZD-41" value="" style="edgeStyle=orthogonalEdgeStyle;rounded=0;orthogonalLoop=1;jettySize=auto;html=1;startArrow=none;startFill=0;endArrow=classicThin;endFill=1;fontSize=15;" parent="WIyWlLk6GJQsqaUBKTNV-1" source="wHM7SWZ9dMUQdtztSqZD-35" target="wHM7SWZ9dMUQdtztSqZD-40" edge="1">
                    <mxGeometry relative="1" as="geometry"/>
                </mxCell>
                <mxCell id="wHM7SWZ9dMUQdtztSqZD-35" value="" style="ellipse;whiteSpace=wrap;html=1;aspect=fixed;rounded=1;fontSize=15;" parent="WIyWlLk6GJQsqaUBKTNV-1" vertex="1">
                    <mxGeometry x="409" y="475" width="10" height="10" as="geometry"/>
                </mxCell>
                <mxCell id="wHM7SWZ9dMUQdtztSqZD-38" value="fMRIPrep failed&lt;br style=&quot;font-size: 15px&quot;&gt;&lt;b style=&quot;font-size: 15px&quot;&gt;n = 4&lt;/b&gt;" style="rounded=1;whiteSpace=wrap;html=1;fontSize=15;" parent="WIyWlLk6GJQsqaUBKTNV-1" vertex="1">
                    <mxGeometry x="690" y="450" width="120" height="60" as="geometry"/>
                </mxCell>
                <mxCell id="wHM7SWZ9dMUQdtztSqZD-40" value="Participants with preprocessed BOLD&lt;br style=&quot;font-size: 15px&quot;&gt;&lt;b style=&quot;font-size: 15px&quot;&gt;n = 52&lt;/b&gt;" style="whiteSpace=wrap;html=1;rounded=1;fontSize=15;" parent="WIyWlLk6GJQsqaUBKTNV-1" vertex="1">
                    <mxGeometry x="327" y="510" width="174" height="100" as="geometry"/>
                </mxCell>
                <mxCell id="wHM7SWZ9dMUQdtztSqZD-47" style="edgeStyle=orthogonalEdgeStyle;rounded=0;orthogonalLoop=1;jettySize=auto;html=1;exitX=1;exitY=0.5;exitDx=0;exitDy=0;entryX=0;entryY=0.5;entryDx=0;entryDy=0;fontSize=15;startArrow=none;startFill=0;endArrow=classicThin;endFill=1;" parent="WIyWlLk6GJQsqaUBKTNV-1" source="wHM7SWZ9dMUQdtztSqZD-44" target="XRYE-j-GYC6dXX16yt95-24" edge="1">
                    <mxGeometry relative="1" as="geometry"/>
                </mxCell>
                <mxCell id="wHM7SWZ9dMUQdtztSqZD-49" style="edgeStyle=orthogonalEdgeStyle;rounded=0;orthogonalLoop=1;jettySize=auto;html=1;exitX=0.5;exitY=1;exitDx=0;exitDy=0;entryX=0.5;entryY=0;entryDx=0;entryDy=0;fontSize=15;startArrow=none;startFill=0;endArrow=classicThin;endFill=1;" parent="WIyWlLk6GJQsqaUBKTNV-1" source="wHM7SWZ9dMUQdtztSqZD-44" target="wHM7SWZ9dMUQdtztSqZD-35" edge="1">
                    <mxGeometry relative="1" as="geometry"/>
                </mxCell>
                <mxCell id="wHM7SWZ9dMUQdtztSqZD-44" value="" style="ellipse;whiteSpace=wrap;html=1;aspect=fixed;rounded=1;fontSize=15;" parent="WIyWlLk6GJQsqaUBKTNV-1" vertex="1">
                    <mxGeometry x="600" y="370" width="10" height="10" as="geometry"/>
                </mxCell>
            </root>
        </mxGraphModel>
    </diagram>
</mxfile>